<svg width="16" height="12" viewBox="0 0 16 12" fill="none" xmlns="http://www.w3.org/2000/svg">
<path d="M14.5 0.116211H1.50001C0.672854 0.116211 0 0.727992 0 1.48007V9.66317C0 10.4152 0.672854 11.027 1.50001 11.027H14.5C15.3271 11.027 16 10.4152 16 9.66317V1.48007C16 0.727992 15.3271 0.116211 14.5 0.116211ZM14.5 1.02544C14.5679 1.02544 14.6325 1.03826 14.6916 1.06064L8 6.3339L1.30833 1.06064C1.36742 1.03829 1.43204 1.02544 1.49998 1.02544H14.5ZM14.5 10.1178H1.50001C1.22414 10.1178 0.999996 9.91401 0.999996 9.66314V2.02125L7.67236 7.27909C7.76661 7.35322 7.8833 7.39008 8 7.39008C8.1167 7.39008 8.23339 7.35325 8.32764 7.27909L15 2.02125V9.66317C15 9.91401 14.7759 10.1178 14.5 10.1178Z" fill="#2196F3"/>
</svg>
