<svg width="10" height="15" viewBox="0 0 10 15" fill="none" xmlns="http://www.w3.org/2000/svg">
<path d="M8.5 0.142334H1.5C0.672848 0.142334 0 0.754111 0 1.50619V13.3262C0 14.0783 0.672848 14.6901 1.5 14.6901H8.5C9.32715 14.6901 10 14.0783 10 13.3262V1.50619C10 0.754111 9.32715 0.142334 8.5 0.142334ZM1.5 1.05157H8.5C8.77588 1.05157 9 1.25535 9 1.50619V11.0532H1V1.50619C1 1.25535 1.22412 1.05157 1.5 1.05157ZM8.5 13.7809H1.5C1.22412 13.7809 1 13.5771 1 13.3262V11.9624H9V13.3262C9 13.5771 8.77588 13.7809 8.5 13.7809Z" fill="#757575"/>
<path d="M2.35355 12.5502C2.54882 12.7278 2.54882 13.0157 2.35355 13.1933C2.15828 13.3709 1.84172 13.3709 1.64645 13.1933C1.45118 13.0157 1.45118 12.7278 1.64645 12.5502C1.84172 12.3726 2.15828 12.3726 2.35355 12.5502Z" fill="#757575"/>
</svg>
